<svg xmlns="http://www.w3.org/2000/svg" xmlns:xlink="http://www.w3.org/1999/xlink" width="500" zoomAndPan="magnify" viewBox="0 0 375 374.999991" height="500" preserveAspectRatio="xMidYMid meet" version="1.0"><defs><g/></defs><g fill="#000000" fill-opacity="1"><g transform="translate(120.293164, 220.174262)"><g><path d="M 148.453125 -25.109375 C 144.953125 -25.503906 141.425781 -25.703125 137.875 -25.703125 C 136.320312 -25.765625 134.738281 -25.8125 133.125 -25.84375 C 118.457031 -26.445312 103.753906 -26.601562 89.015625 -26.3125 C 88.285156 -26.3125 87.679688 -26.3125 87.203125 -26.3125 C 86.398438 -26.363281 85.8125 -26.359375 85.4375 -26.296875 C 85.070312 -26.234375 84.78125 -26.03125 84.5625 -25.6875 C 84.34375 -25.351562 84.085938 -24.800781 83.796875 -24.03125 C 83.597656 -23.59375 83.359375 -23.046875 83.078125 -22.390625 C 80.628906 -17.035156 78.378906 -11.59375 76.328125 -6.0625 C 74.992188 -2.5 73.957031 1.160156 73.21875 4.921875 C 72.945312 6.085938 72.851562 7.222656 72.9375 8.328125 C 73.019531 9.441406 73.519531 10.4375 74.4375 11.3125 C 74.5625 11.40625 74.601562 11.519531 74.5625 11.65625 C 74.53125 11.789062 74.445312 11.914062 74.3125 12.03125 C 74.1875 12.15625 74.050781 12.238281 73.90625 12.28125 C 71.726562 12.601562 70.421875 11.820312 69.984375 9.9375 C 69.722656 8.875 69.675781 7.785156 69.84375 6.671875 C 69.84375 6.578125 69.84375 6.515625 69.84375 6.484375 C 70.007812 4.554688 70.351562 2.644531 70.875 0.75 C 71.394531 -1.144531 71.976562 -3.039062 72.625 -4.9375 C 74.6875 -10.65625 76.960938 -16.296875 79.453125 -21.859375 C 79.585938 -22.097656 79.691406 -22.335938 79.765625 -22.578125 C 79.890625 -22.847656 80.023438 -23.128906 80.171875 -23.421875 C 80.367188 -23.828125 80.550781 -24.226562 80.71875 -24.625 C 80.882812 -25.03125 80.953125 -25.457031 80.921875 -25.90625 C 80.710938 -26.0625 80.507812 -26.15625 80.3125 -26.1875 C 80.113281 -26.226562 79.910156 -26.234375 79.703125 -26.203125 C 79.671875 -26.203125 79.625 -26.203125 79.5625 -26.203125 C 77.84375 -26.203125 76.113281 -26.179688 74.375 -26.140625 C 73.894531 -26.140625 73.390625 -26.140625 72.859375 -26.140625 C 72.222656 -26.109375 71.6875 -25.910156 71.25 -25.546875 C 70.8125 -25.179688 70.390625 -24.734375 69.984375 -24.203125 C 69.453125 -23.523438 68.921875 -22.847656 68.390625 -22.171875 C 66.140625 -19.296875 63.867188 -16.445312 61.578125 -13.625 C 58.191406 -9.519531 54.648438 -5.5625 50.953125 -1.75 C 47.265625 2.050781 43.351562 5.617188 39.21875 8.953125 C 34.019531 13.234375 28.5 17.003906 22.65625 20.265625 C 13.71875 25.066406 4.351562 27.335938 -5.4375 27.078125 C -14.664062 26.878906 -22.988281 24.390625 -30.40625 19.609375 C -32.488281 18.273438 -34.335938 16.664062 -35.953125 14.78125 C -37.035156 13.4375 -37.890625 11.988281 -38.515625 10.4375 C -39.148438 8.894531 -39.46875 7.21875 -39.46875 5.40625 C -39.375 3.226562 -38.875 1.210938 -37.96875 -0.640625 C -37.0625 -2.503906 -35.800781 -4.195312 -34.1875 -5.71875 C -31.976562 -7.851562 -29.546875 -9.664062 -26.890625 -11.15625 C -24.304688 -12.65625 -21.644531 -13.96875 -18.90625 -15.09375 C -16.164062 -16.21875 -13.40625 -17.21875 -10.625 -18.09375 C -6.125 -19.539062 -1.578125 -20.757812 3.015625 -21.75 C 7.617188 -22.738281 12.234375 -23.582031 16.859375 -24.28125 C 27.847656 -25.800781 38.863281 -26.804688 49.90625 -27.296875 C 55.539062 -27.648438 61.160156 -27.828125 66.765625 -27.828125 C 68.304688 -27.785156 69.5 -28.429688 70.34375 -29.765625 C 71.820312 -31.859375 73.3125 -33.957031 74.8125 -36.0625 C 77.144531 -39.28125 79.4375 -42.554688 81.6875 -45.890625 C 92.15625 -61.523438 102.1875 -77.421875 111.78125 -93.578125 C 112.59375 -94.953125 113.378906 -96.34375 114.140625 -97.75 C 114.515625 -98.46875 114.898438 -99.191406 115.296875 -99.921875 C 115.773438 -100.859375 116.535156 -101.378906 117.578125 -101.484375 C 118.148438 -101.484375 118.566406 -101.320312 118.828125 -101 C 119.097656 -100.6875 119.128906 -100.265625 118.921875 -99.734375 C 118.722656 -99.285156 118.492188 -98.863281 118.234375 -98.46875 C 116.679688 -95.6875 115.300781 -92.863281 114.09375 -90 C 113.632812 -89 113.1875 -88.015625 112.75 -87.046875 C 108.519531 -77.867188 104.269531 -68.679688 100 -59.484375 C 96.738281 -52.398438 93.453125 -45.296875 90.140625 -38.171875 C 89.191406 -36.066406 88.25 -33.972656 87.3125 -31.890625 C 87.113281 -31.453125 86.910156 -31.03125 86.703125 -30.625 C 86.671875 -30.53125 86.632812 -30.429688 86.59375 -30.328125 C 86.46875 -30.035156 86.363281 -29.742188 86.28125 -29.453125 C 86.195312 -29.171875 86.222656 -28.894531 86.359375 -28.625 C 86.628906 -28.414062 86.945312 -28.300781 87.3125 -28.28125 C 87.675781 -28.269531 88.015625 -28.265625 88.328125 -28.265625 C 88.585938 -28.296875 88.816406 -28.3125 89.015625 -28.3125 C 90.535156 -28.28125 92.066406 -28.28125 93.609375 -28.3125 C 95.691406 -28.3125 97.785156 -28.296875 99.890625 -28.265625 C 111.316406 -28.054688 122.753906 -27.804688 134.203125 -27.515625 C 137.953125 -27.441406 141.675781 -27.285156 145.375 -27.046875 C 145.707031 -27.015625 146.054688 -27 146.421875 -27 C 146.617188 -27 146.835938 -27 147.078125 -27 C 147.554688 -27 148.019531 -26.957031 148.46875 -26.875 C 148.914062 -26.789062 149.34375 -26.628906 149.75 -26.390625 C 149.820312 -26.335938 149.875 -26.25 149.90625 -26.125 C 149.945312 -26.007812 149.945312 -25.914062 149.90625 -25.84375 C 149.90625 -25.71875 149.851562 -25.601562 149.75 -25.5 C 149.65625 -25.394531 149.570312 -25.328125 149.5 -25.296875 C 149.164062 -25.171875 148.816406 -25.109375 148.453125 -25.109375 Z M 66.578125 -24.796875 C 66.703125 -25.054688 66.710938 -25.285156 66.609375 -25.484375 C 66.515625 -25.691406 66.347656 -25.796875 66.109375 -25.796875 C 65.742188 -25.828125 65.359375 -25.828125 64.953125 -25.796875 C 64.753906 -25.796875 64.554688 -25.796875 64.359375 -25.796875 C 50.523438 -25.628906 36.691406 -24.675781 22.859375 -22.9375 C 17.554688 -22.289062 12.285156 -21.445312 7.046875 -20.40625 C 1.816406 -19.363281 -3.367188 -18.054688 -8.515625 -16.484375 C -11.265625 -15.640625 -13.972656 -14.671875 -16.640625 -13.578125 C -19.316406 -12.492188 -21.925781 -11.203125 -24.46875 -9.703125 C -27.125 -8.210938 -29.539062 -6.394531 -31.71875 -4.25 C -34.269531 -1.632812 -35.703125 1.148438 -36.015625 4.109375 C -36.335938 7.066406 -35.546875 9.914062 -33.640625 12.65625 C -32.234375 14.582031 -30.550781 16.234375 -28.59375 17.609375 C -21.445312 22.679688 -12.941406 25.257812 -3.078125 25.34375 C -0.546875 25.34375 2.351562 25.015625 5.625 24.359375 C 8.882812 23.679688 12.035156 22.6875 15.078125 21.375 C 18.117188 20.070312 21.066406 18.53125 23.921875 16.75 C 30.972656 12.414062 37.5 7.363281 43.5 1.59375 C 47.65625 -2.300781 51.570312 -6.40625 55.25 -10.71875 C 58.9375 -15.03125 62.507812 -19.421875 65.96875 -23.890625 C 66.175781 -24.222656 66.378906 -24.523438 66.578125 -24.796875 Z M 83.390625 -30.484375 C 86.046875 -36.523438 88.78125 -42.550781 91.59375 -48.5625 C 91.726562 -48.882812 92.15625 -49.828125 92.875 -51.390625 C 93.59375 -52.960938 94.425781 -54.785156 95.375 -56.859375 C 96.320312 -58.941406 97.1875 -60.90625 97.96875 -62.75 C 98.757812 -64.601562 99.3125 -65.992188 99.625 -66.921875 C 99.945312 -67.847656 99.851562 -67.9375 99.34375 -67.1875 C 99.21875 -67.019531 99.117188 -66.851562 99.046875 -66.6875 C 98.597656 -66.039062 98.175781 -65.398438 97.78125 -64.765625 C 94.425781 -59.566406 91.054688 -54.375 87.671875 -49.1875 C 84.285156 -44.007812 80.78125 -38.898438 77.15625 -33.859375 C 76.800781 -33.390625 76.441406 -32.890625 76.078125 -32.359375 C 75.378906 -31.398438 74.691406 -30.4375 74.015625 -29.46875 C 73.742188 -29.0625 73.664062 -28.722656 73.78125 -28.453125 C 73.90625 -28.191406 74.1875 -28.0625 74.625 -28.0625 C 75.351562 -28.0625 76.078125 -28.082031 76.796875 -28.125 C 77.929688 -28.21875 79.054688 -28.265625 80.171875 -28.265625 C 81.035156 -28.222656 81.703125 -28.40625 82.171875 -28.8125 C 82.648438 -29.21875 83.054688 -29.773438 83.390625 -30.484375 Z M 83.390625 -30.484375 "/></g></g><g transform="translate(207.359808, 220.174262)"><g><path d="M 108.765625 10.90625 C 108.796875 10.90625 108.859375 10.90625 108.953125 10.90625 C 109.234375 10.9375 109.503906 10.992188 109.765625 11.078125 C 110.035156 11.160156 110.269531 11.320312 110.46875 11.5625 C 110.539062 11.632812 110.597656 11.734375 110.640625 11.859375 C 110.691406 11.992188 110.6875 12.113281 110.625 12.21875 C 110.59375 12.351562 110.523438 12.46875 110.421875 12.5625 C 110.328125 12.664062 110.242188 12.71875 110.171875 12.71875 C 109.671875 12.789062 109.164062 12.789062 108.65625 12.71875 C 96.363281 10.175781 82.742188 8.53125 67.796875 7.78125 C 52.847656 7.039062 39.054688 7.3125 26.421875 8.59375 C 25.859375 8.632812 25.3125 8.703125 24.78125 8.796875 C 24.300781 8.828125 23.84375 8.863281 23.40625 8.90625 C 21.988281 9.101562 20.78125 9.722656 19.78125 10.765625 C 17.507812 13.234375 15.007812 15.410156 12.28125 17.296875 C 10.132812 18.742188 7.769531 19.550781 5.1875 19.71875 C 4.144531 19.789062 3.140625 19.625 2.171875 19.21875 C 1.253906 18.820312 0.660156 18.21875 0.390625 17.40625 C 0.128906 16.601562 0.242188 15.742188 0.734375 14.828125 C 1.546875 13.523438 2.875 12.410156 4.71875 11.484375 C 6.570312 10.566406 8.546875 9.8125 10.640625 9.21875 C 12.734375 8.632812 14.503906 8.207031 15.953125 7.9375 C 17.898438 7.570312 19.476562 6.628906 20.6875 5.109375 C 26.519531 -1.992188 32.132812 -10.035156 37.53125 -19.015625 C 42.925781 -27.992188 47.894531 -37.234375 52.4375 -46.734375 C 56.988281 -56.242188 60.90625 -65.347656 64.1875 -74.046875 C 64.300781 -74.503906 64.488281 -74.898438 64.75 -75.234375 C 65.019531 -75.578125 65.410156 -75.8125 65.921875 -75.9375 C 66.410156 -76.007812 66.832031 -75.910156 67.1875 -75.640625 C 67.550781 -75.378906 67.695312 -75.015625 67.625 -74.546875 C 67.457031 -73.410156 67.171875 -72.300781 66.765625 -71.21875 C 63.640625 -62.957031 59.925781 -54.351562 55.625 -45.40625 C 51.332031 -36.46875 46.660156 -27.75 41.609375 -19.25 C 36.554688 -10.757812 31.347656 -3.070312 25.984375 3.8125 C 24.867188 5.226562 24.53125 6.050781 24.96875 6.28125 C 25.40625 6.507812 26.265625 6.492188 27.546875 6.234375 C 27.835938 6.203125 28.125 6.164062 28.40625 6.125 C 38.46875 4.988281 48.910156 4.644531 59.734375 5.09375 C 70.554688 5.539062 81.222656 6.488281 91.734375 7.9375 C 95.429688 8.46875 99.054688 9.070312 102.609375 9.75 C 104.703125 10.15625 106.753906 10.539062 108.765625 10.90625 Z M 6.703125 17.109375 C 9.773438 15.867188 12.320312 13.898438 14.34375 11.203125 C 11.019531 11.441406 8.070312 12.46875 5.5 14.28125 C 4.6875 14.882812 4.210938 15.46875 4.078125 16.03125 C 3.941406 16.601562 4.109375 17.015625 4.578125 17.265625 C 5.046875 17.523438 5.753906 17.472656 6.703125 17.109375 Z M 6.703125 17.109375 "/></g></g></g></svg>