<svg xmlns="http://www.w3.org/2000/svg" xmlns:xlink="http://www.w3.org/1999/xlink" width="500" zoomAndPan="magnify" viewBox="0 0 375 374.999991" height="500" preserveAspectRatio="xMidYMid meet" version="1.0"><defs><g/><clipPath id="9e399c6f9d"><path d="M 33.507812 200.605469 L 350.742188 200.605469 L 350.742188 237.679688 L 33.507812 237.679688 Z M 33.507812 200.605469 " clip-rule="nonzero"/></clipPath></defs><g fill="#3b3937" fill-opacity="1"><g transform="translate(176.410085, 273.35553)"><g><path d="M 56.359375 0 L 14.71875 -118.53125 C 13.382812 -122.164062 11.75 -124.648438 9.8125 -125.984375 C 7.875 -127.316406 5.332031 -127.984375 2.1875 -127.984375 L 0 -127.984375 L 0 -129.796875 L 52.71875 -129.796875 L 52.71875 -127.984375 L 46.546875 -127.984375 C 43.265625 -127.984375 40.742188 -127.5 38.984375 -126.53125 C 37.234375 -125.5625 36.359375 -123.804688 36.359375 -121.265625 C 36.359375 -119.078125 36.960938 -116.285156 38.171875 -112.890625 L 60.359375 -48.359375 C 64.597656 -36.234375 67.929688 -25.382812 70.359375 -15.8125 C 71.691406 -20.300781 73.207031 -25.269531 74.90625 -30.71875 C 76.601562 -36.175781 78.238281 -41.328125 79.8125 -46.171875 L 100.71875 -111.625 C 102.050781 -115.382812 102.71875 -118.351562 102.71875 -120.53125 C 102.71875 -123.320312 101.773438 -125.257812 99.890625 -126.34375 C 98.015625 -127.4375 95.015625 -127.984375 90.890625 -127.984375 L 79.8125 -127.984375 L 79.8125 -129.796875 L 123.796875 -129.796875 L 123.796875 -127.984375 L 117.625 -127.984375 C 114.101562 -127.984375 111.3125 -126.984375 109.25 -124.984375 C 107.195312 -122.984375 105.382812 -119.378906 103.8125 -114.171875 L 66.90625 0 Z M 56.359375 0 "/></g></g></g><g fill="#3b3937" fill-opacity="1"><g transform="translate(68.055711, 216.929283)"><g><path d="M 0.1875 0 L 0.1875 -1.8125 L 6 -1.8125 C 9.757812 -1.8125 12.726562 -2.84375 14.90625 -4.90625 C 17.082031 -6.96875 19.082031 -10.601562 20.90625 -15.8125 L 61.265625 -129.796875 L 72.90625 -129.796875 L 117.078125 -12.359375 C 118.648438 -8.359375 120.285156 -5.597656 121.984375 -4.078125 C 123.679688 -2.566406 125.925781 -1.8125 128.71875 -1.8125 L 130.53125 -1.8125 L 130.53125 0 L 77.8125 0 L 77.8125 -1.8125 L 83.625 -1.8125 C 87.75 -1.8125 90.71875 -2.328125 92.53125 -3.359375 C 94.351562 -4.390625 95.265625 -6.238281 95.265625 -8.90625 C 95.265625 -9.875 95.140625 -11.054688 94.890625 -12.453125 C 94.648438 -13.847656 94.226562 -15.394531 93.625 -17.09375 L 82.71875 -47.265625 L 34.171875 -47.265625 L 24 -18.71875 C 23.394531 -16.90625 22.910156 -15.300781 22.546875 -13.90625 C 22.179688 -12.507812 22 -11.207031 22 -10 C 22 -6.96875 23.238281 -4.84375 25.71875 -3.625 C 28.207031 -2.414062 32.238281 -1.8125 37.8125 -1.8125 L 44.359375 -1.8125 L 44.359375 0 Z M 34.71875 -49.078125 L 81.984375 -49.078125 L 69.265625 -83.984375 C 67.203125 -89.679688 65.203125 -95.410156 63.265625 -101.171875 C 61.328125 -106.929688 59.75 -112.234375 58.53125 -117.078125 C 56.84375 -111.984375 55.175781 -107.132812 53.53125 -102.53125 C 51.894531 -97.925781 50.050781 -92.65625 48 -86.71875 Z M 34.71875 -49.078125 "/></g></g></g><g clip-path="url(#9e399c6f9d)"><path fill="#f4f4f4" d="M 33.507812 200.605469 L 350.742188 200.605469 L 350.742188 237.679688 L 33.507812 237.679688 Z M 33.507812 200.605469 " fill-opacity="1" fill-rule="nonzero"/></g><g fill="#967f71" fill-opacity="1"><g transform="translate(142.773694, 227.124477)"><g><path d="M 20.238281 -4.734375 C 20.957031 -5.957031 21.425781 -5.660156 22.445312 -5.421875 C 23.667969 -4.953125 24.8125 -4.515625 25.847656 -4.136719 C 26.175781 -4.011719 26.398438 -3.746094 26.445312 -3.402344 C 26.710938 -1.472656 27.117188 -0.453125 27.746094 -0.25 C 27.855469 -0.203125 27.964844 -0.21875 28.058594 -0.265625 C 28.152344 -0.3125 28.230469 -0.40625 28.261719 -0.5 C 28.324219 -0.722656 28.214844 -0.957031 27.996094 -1.035156 C 27.730469 -1.128906 27.523438 -1.753906 27.367188 -2.710938 C 27.320312 -2.914062 27.398438 -3.121094 27.558594 -3.246094 C 27.699219 -3.371094 27.917969 -3.417969 28.105469 -3.355469 C 29.171875 -2.960938 30.300781 -2.726562 31.445312 -2.664062 C 31.539062 -2.664062 31.648438 -2.710938 31.726562 -2.789062 C 31.804688 -2.867188 31.835938 -2.976562 31.835938 -3.089844 C 31.835938 -3.199219 31.789062 -3.308594 31.710938 -3.371094 C 31.632812 -3.449219 31.523438 -3.496094 31.414062 -3.496094 C 30.144531 -3.589844 28.90625 -3.886719 27.714844 -4.359375 C 27.367188 -4.46875 27.117188 -4.78125 27.085938 -5.140625 C 26.835938 -8.417969 26.804688 -12.820312 26.789062 -15.28125 C 26.773438 -18.714844 26.742188 -20.046875 26.585938 -20.425781 C 26.523438 -20.597656 26.367188 -20.707031 26.191406 -20.691406 C 26.003906 -20.675781 25.863281 -20.550781 25.816406 -20.378906 C 24.890625 -17.039062 23.746094 -13.761719 22.382812 -10.582031 C 21.929688 -9.546875 21.492188 -8.605469 21.035156 -7.726562 C 20.832031 -7.320312 20.332031 -7.132812 19.90625 -7.289062 C 14.765625 -9.265625 8.886719 -11.378906 4.390625 -11.726562 C 2.648438 -11.851562 1.519531 -11.535156 1.035156 -10.800781 C 0.628906 -10.171875 0.707031 -9.34375 1.253906 -8.324219 C 2.976562 -5.171875 9.625 -0.15625 14.28125 -0.15625 C 16.472656 -0.15625 18.496094 -2.085938 20.238281 -4.734375 Z M 3.621094 -10.925781 C 3.839844 -10.925781 4.074219 -10.925781 4.328125 -10.910156 C 8.605469 -10.582031 14.234375 -8.589844 19.21875 -6.675781 C 19.46875 -6.582031 19.671875 -6.363281 19.75 -6.113281 C 19.84375 -5.847656 19.796875 -5.566406 19.65625 -5.328125 C 17.824219 -2.460938 16.003906 -0.988281 14.28125 -0.988281 C 10.265625 -0.988281 3.746094 -5.46875 1.976562 -8.714844 C 1.707031 -9.21875 1.441406 -9.90625 1.722656 -10.34375 C 1.960938 -10.722656 2.632812 -10.925781 3.621094 -10.925781 Z M 25.644531 -16.945312 C 25.753906 -17.273438 25.957031 -17.210938 25.957031 -16.851562 C 25.957031 -16.347656 25.957031 -15.816406 25.972656 -15.28125 C 25.988281 -11.425781 26.050781 -8.355469 26.191406 -6.019531 C 26.222656 -5.753906 26.097656 -5.519531 25.894531 -5.359375 C 25.691406 -5.203125 25.425781 -5.171875 25.191406 -5.265625 C 24.203125 -5.644531 23.136719 -6.050781 22.039062 -6.472656 L 21.425781 -6.707031 C 23.136719 -9.984375 24.546875 -13.417969 25.644531 -16.945312 Z M 25.644531 -16.945312 "/></g></g></g><g fill="#967f71" fill-opacity="1"><g transform="translate(175.425872, 227.124477)"><g><path d="M 13.871094 -3.964844 C 13.792969 -4.042969 13.683594 -4.089844 13.589844 -4.089844 C 13.480469 -4.089844 13.371094 -4.042969 13.292969 -3.964844 C 11.976562 -2.648438 9.28125 -1.300781 7.117188 -1.347656 C 6.253906 -1.316406 5.40625 -1.644531 4.796875 -2.273438 C 4.78125 -2.289062 4.75 -2.320312 4.734375 -2.351562 C 4.71875 -2.398438 4.71875 -2.445312 4.734375 -2.507812 C 5.046875 -3.054688 5.234375 -3.683594 5.25 -4.328125 C 5.25 -4.640625 5.0625 -4.921875 4.765625 -5.046875 C 4.359375 -5.265625 3.824219 -5.15625 3.558594 -4.765625 C 3.199219 -4.246094 3.324219 -3.277344 3.683594 -2.507812 C 3.699219 -2.445312 3.699219 -2.398438 3.683594 -2.335938 C 3.433594 -1.945312 3.136719 -1.597656 2.804688 -1.285156 C 2.476562 -0.988281 2.007812 -0.691406 1.644531 -0.894531 C 0.847656 -1.660156 0.832031 -3.558594 0.894531 -4.214844 C 0.910156 -4.4375 0.753906 -4.640625 0.53125 -4.65625 C 0.3125 -4.6875 0.109375 -4.53125 0.078125 -4.296875 C 0.078125 -4.183594 -0.1875 -1.441406 1.113281 -0.25 C 1.128906 -0.234375 1.160156 -0.21875 1.175781 -0.21875 C 1.394531 -0.078125 1.644531 0 1.898438 0 C 2.242188 0 2.570312 -0.109375 2.851562 -0.296875 C 3.292969 -0.59375 3.683594 -0.972656 4.011719 -1.394531 C 4.074219 -1.457031 4.167969 -1.503906 4.261719 -1.503906 C 4.359375 -1.503906 4.453125 -1.472656 4.515625 -1.394531 C 5.234375 -0.816406 6.160156 -0.5 7.101562 -0.515625 C 9.609375 -0.453125 12.445312 -1.960938 13.871094 -3.386719 C 13.949219 -3.464844 13.996094 -3.574219 13.996094 -3.683594 C 13.996094 -3.792969 13.949219 -3.886719 13.871094 -3.964844 Z M 4.277344 -3.511719 C 4.261719 -3.480469 4.214844 -3.480469 4.214844 -3.511719 C 4.136719 -3.761719 4.136719 -4.042969 4.230469 -4.296875 C 4.261719 -4.328125 4.296875 -4.359375 4.34375 -4.359375 C 4.375 -4.34375 4.40625 -4.328125 4.4375 -4.296875 C 4.4375 -4.011719 4.390625 -3.746094 4.277344 -3.511719 Z M 4.277344 -3.511719 "/></g></g></g><g fill="#967f71" fill-opacity="1"><g transform="translate(188.587023, 227.124477)"><g><path d="M 13.152344 -4.027344 C 13.074219 -4.105469 12.980469 -4.167969 12.871094 -4.167969 C 12.757812 -4.183594 12.648438 -4.152344 12.570312 -4.089844 C 12.507812 -4.042969 6.472656 0.753906 1.441406 -1.316406 C 0.421875 -1.738281 0.375 -2.289062 0.40625 -2.585938 C 0.40625 -2.632812 0.421875 -2.679688 0.46875 -2.710938 C 0.5 -2.742188 0.5625 -2.742188 0.609375 -2.726562 C 1.628906 -2.664062 2.648438 -2.929688 3.527344 -3.480469 C 4.277344 -3.964844 4.40625 -4.5 4.359375 -4.84375 C 4.328125 -5.40625 3.871094 -5.863281 3.292969 -5.878906 C 2.054688 -5.941406 -0.015625 -4.46875 -0.359375 -2.898438 C -0.5 -2.320312 -0.484375 -1.222656 1.128906 -0.5625 C 2.117188 -0.15625 3.152344 0.03125 4.199219 0.03125 C 8.699219 0.03125 12.871094 -3.277344 13.089844 -3.449219 C 13.167969 -3.511719 13.230469 -3.621094 13.230469 -3.714844 C 13.246094 -3.824219 13.214844 -3.933594 13.152344 -4.027344 Z M 0.972656 -3.683594 C 1.582031 -4.53125 2.601562 -5.09375 3.246094 -5.046875 C 3.417969 -5.046875 3.511719 -4.984375 3.542969 -4.75 C 3.558594 -4.59375 3.386719 -4.375 3.074219 -4.167969 C 2.429688 -3.746094 0.5 -3.054688 0.972656 -3.683594 Z M 0.972656 -3.683594 "/></g></g></g><g fill="#967f71" fill-opacity="1"><g transform="translate(201.137117, 227.124477)"><g><path d="M 13.511719 -4.121094 C 13.433594 -4.199219 13.339844 -4.246094 13.230469 -4.246094 C 13.121094 -4.246094 13.011719 -4.199219 12.933594 -4.121094 C 10.21875 -1.472656 5.40625 -0.910156 4.375 -1.519531 C 3.667969 -1.929688 3.746094 -2.414062 4.246094 -3.386719 C 4.484375 -3.855469 4.75 -4.40625 4.296875 -4.734375 C 3.871094 -5.046875 3.464844 -4.84375 3.105469 -4.65625 C 2.585938 -4.359375 2.007812 -4.199219 1.394531 -4.199219 C 1.253906 -4.199219 1.128906 -4.453125 1.160156 -4.546875 C 2.039062 -6.472656 1.644531 -6.835938 1.503906 -6.976562 C 1.269531 -7.210938 0.910156 -7.195312 0.46875 -6.929688 C -0.25 -6.410156 -0.5625 -5.484375 -0.3125 -4.625 C -0.25 -4.390625 -0.140625 -4.167969 0.015625 -3.980469 C 0 -3.808594 0.078125 -3.652344 0.234375 -3.574219 C 0.328125 -3.527344 0.4375 -3.527344 0.546875 -3.558594 C 0.816406 -3.433594 1.113281 -3.371094 1.410156 -3.371094 C 2.054688 -3.355469 2.679688 -3.496094 3.246094 -3.808594 C 3.464844 -3.917969 3.542969 -3.824219 3.511719 -3.761719 C 3.136719 -3.023438 2.460938 -1.675781 3.964844 -0.800781 C 4.5 -0.546875 5.09375 -0.4375 5.691406 -0.484375 C 7.882812 -0.484375 11.332031 -1.425781 13.496094 -3.542969 C 13.574219 -3.605469 13.621094 -3.714844 13.621094 -3.824219 C 13.636719 -3.933594 13.589844 -4.042969 13.511719 -4.121094 Z M 0.453125 -4.984375 C 0.359375 -5.4375 0.515625 -5.910156 0.878906 -6.207031 C 0.769531 -5.785156 0.628906 -5.375 0.453125 -4.96875 Z M 0.453125 -4.984375 "/></g></g></g><g fill="#967f71" fill-opacity="1"><g transform="translate(213.984906, 227.124477)"><g><path d="M 12.398438 -4.3125 C 12.226562 -4.46875 11.976562 -4.46875 11.820312 -4.3125 C 11.726562 -4.214844 9.671875 -2.179688 6.898438 -4.214844 C 6.742188 -4.328125 6.535156 -4.328125 6.378906 -4.183594 C 6.128906 -3.964844 5.863281 -3.699219 5.582031 -3.417969 C 5.46875 -3.292969 5.28125 -3.246094 5.125 -3.308594 C 4.96875 -3.371094 4.859375 -3.511719 4.84375 -3.683594 C 4.84375 -4.011719 4.796875 -4.34375 4.6875 -4.65625 C 4.625 -4.828125 4.453125 -4.9375 4.261719 -4.90625 C 4.074219 -4.890625 3.933594 -4.75 3.902344 -4.578125 C 3.902344 -4.546875 3.402344 -1.769531 1.269531 -1.207031 C 1.082031 -1.144531 0.878906 -1.191406 0.738281 -1.332031 C 0.609375 -1.472656 0.25 -2.101562 1.066406 -4.089844 C 1.144531 -4.3125 1.050781 -4.546875 0.832031 -4.625 C 0.628906 -4.71875 0.375 -4.609375 0.296875 -4.40625 C -0.578125 -2.242188 -0.28125 -1.238281 0.109375 -0.785156 C 0.453125 -0.40625 0.988281 -0.265625 1.472656 -0.421875 C 2.570312 -0.722656 3.480469 -1.472656 3.996094 -2.476562 C 3.980469 -2.179688 3.933594 -1.882812 3.886719 -1.566406 C 3.871094 -1.503906 3.839844 -1.425781 3.792969 -1.363281 C 1.960938 0.941406 0.296875 3.761719 0.265625 5.535156 C 0.21875 6.003906 0.390625 6.472656 0.722656 6.835938 C 0.863281 6.976562 1.050781 7.070312 1.253906 7.070312 C 1.425781 7.054688 1.597656 7.007812 1.738281 6.914062 C 2.773438 6.222656 4.089844 2.210938 4.609375 -0.988281 C 4.625 -1.066406 4.65625 -1.128906 4.703125 -1.191406 C 5.1875 -1.785156 5.691406 -2.351562 6.191406 -2.851562 C 6.472656 -3.152344 6.898438 -3.214844 7.257812 -3.023438 C 8.949219 -2.132812 11.019531 -2.414062 12.398438 -3.730469 C 12.476562 -3.808594 12.523438 -3.917969 12.523438 -4.027344 C 12.523438 -4.136719 12.476562 -4.230469 12.398438 -4.3125 Z M 3.449219 0.722656 C 3.105469 2.289062 2.601562 3.792969 1.945312 5.25 C 1.582031 5.972656 1.425781 6.253906 1.269531 6.222656 C 1.128906 6.207031 1.082031 5.863281 1.097656 5.550781 C 1.113281 4.40625 2.054688 2.523438 3.308594 0.691406 C 3.386719 0.578125 3.480469 0.609375 3.449219 0.722656 Z M 3.449219 0.722656 "/></g></g></g><g fill="#967f71" fill-opacity="1"><g transform="translate(225.636973, 227.124477)"><g/></g></g></svg>