<svg width="680" height="720" viewBox="0 0 680 720" xmlns="http://www.w3.org/2000/svg">
  <rect width="680" height="720" fill="#1E1E1E"/>
  <circle cx="340" cy="290" r="210" fill="#ffffff"/>
  <g transform="translate(220, 170) scale(10)">
    <path fill="#1E1E1E" d="M20 4H4c-1.1 0-2 .9-2 2v12c0 1.1.9 2 2 2h16c1.1 0 2-.9 2-2V6c0-1.1-.9-2-2-2zm0 2v.01L12 13 4 6.01V6h16zM4 18V8.99l8 6.92 8-6.92V18H4z"/>
  </g>
  <text x="340" y="610" text-anchor="middle" font-family="Arial Black, Helvetica Neue, sans-serif" font-weight="900" font-size="90" fill="#ffffff">Email</text>
</svg>