<svg width="256" height="256" viewBox="0 0 256 256" xmlns="http://www.w3.org/2000/svg">
  <!-- Black background -->
  <rect width="256" height="256" fill="#000000"/>

  <!-- White circle -->
  <circle cx="128" cy="110" r="70" fill="#ffffff"/>

  <!-- Simplified Octocat silhouette -->
  <path d="M128 60
           c-22 0-40 18-40 40
           c0 16 10 30 24 36
           c2 1 3-1 3-2
           v-8
           c-10 2-12-4-12-4
           c-2-4-4-5-4-5
           c-3-2 0-2 0-2
           c3 0 5 3 5 3
           c3 5 8 4 10 3
           c0-2 1-4 2-5
           c-8-1-16-4-16-18
           c0-4 1-7 4-10
           c0-1-2-4 0-9
           c0 0 3-1 10 4
           a34 34 0 0 1 18 0
           c7-5 10-4 10-4
           c2 5 0 8 0 9
           c3 3 4 6 4 10
           c0 14-8 17-16 18
           c1 1 2 3 2 6
           v9
           c0 1 1 3 3 2
           c14-6 24-20 24-36
           c0-22-18-40-40-40z"
        fill="#000000"/>

  <!-- GitHub text -->
  <text x="128" y="215"
        font-family="Arial, Helvetica, sans-serif"
        font-size="32"
        text-anchor="middle"
        fill="#ffffff">
    GitHub
  </text>
</svg>